<svg xmlns="http://www.w3.org/2000/svg" viewBox="0 0 880 380" font-family="-apple-system, BlinkMacSystemFont, 'Inter', 'Segoe UI', 'Helvetica Neue', sans-serif" font-size="12">
<defs>
  <style>
    .bg   {fill:#fbfbf8;}
    .frame{fill:none; stroke:#d8d8d3; stroke-width:1;}
    .grid {stroke:#e6e6e6; stroke-width:1;}
    .axis {stroke:#444; stroke-width:1;}
    .tick {fill:#555; font-size:11px;}
    .scen {fill:#222; font-size:12px;}
    .ttl  {fill:#111; font-size:14px; font-weight:600;}
    .sub  {fill:#666; font-size:11px;}
    .leg  {fill:#222; font-size:12px;}
    .val  {fill:#222; font-size:9.5px;}
  </style>
</defs>
<rect class="bg" x="0" y="0" width="880" height="380"/>
<rect class="frame" x="0.5" y="0.5" width="879" height="379"/>
<text class="ttl" x="440.0" y="24" text-anchor="middle">Wall time, milliseconds, lower is better</text>
<text class="sub" x="440.0" y="40" text-anchor="middle">1,000,000 file synthetic tree, hyperfine 8 runs warmup 2, M2 Max, APFS</text>
<line class="grid" x1="60" y1="310.0" x2="850" y2="310.0"/>
<text class="tick" x="52" y="314.0" text-anchor="end">0</text>
<line class="grid" x1="60" y1="268.3" x2="850" y2="268.3"/>
<text class="tick" x="52" y="272.3" text-anchor="end">200</text>
<line class="grid" x1="60" y1="226.7" x2="850" y2="226.7"/>
<text class="tick" x="52" y="230.7" text-anchor="end">400</text>
<line class="grid" x1="60" y1="185.0" x2="850" y2="185.0"/>
<text class="tick" x="52" y="189.0" text-anchor="end">600</text>
<line class="grid" x1="60" y1="143.3" x2="850" y2="143.3"/>
<text class="tick" x="52" y="147.3" text-anchor="end">800</text>
<line class="grid" x1="60" y1="101.7" x2="850" y2="101.7"/>
<text class="tick" x="52" y="105.7" text-anchor="end">1000</text>
<line class="grid" x1="60" y1="60.0" x2="850" y2="60.0"/>
<text class="tick" x="52" y="64.0" text-anchor="end">1200</text>
<line class="axis" x1="60" y1="310" x2="850" y2="310"/>
<rect x="81.0" y="246.0" width="26" height="64.0" fill="#0f5f36" rx="2"/>
<text class="val" x="94.0" y="242.0" text-anchor="middle">307</text>
<rect x="111.0" y="209.6" width="26" height="100.4" fill="#4f6a82" rx="2"/>
<text class="val" x="124.0" y="205.6" text-anchor="middle">482</text>
<rect x="141.0" y="90.4" width="26" height="219.6" fill="#a07338" rx="2"/>
<text class="val" x="154.0" y="86.4" text-anchor="middle">1054</text>
<rect x="171.0" y="85.6" width="26" height="224.4" fill="#7a4862" rx="2"/>
<text class="val" x="184.0" y="81.6" text-anchor="middle">1077</text>
<text class="scen" x="139.0" y="328.0" text-anchor="middle">all_files</text>
<rect x="239.0" y="245.8" width="26" height="64.2" fill="#0f5f36" rx="2"/>
<text class="val" x="252.0" y="241.8" text-anchor="middle">308</text>
<rect x="269.0" y="180.2" width="26" height="129.8" fill="#4f6a82" rx="2"/>
<text class="val" x="282.0" y="176.2" text-anchor="middle">623</text>
<rect x="299.0" y="98.1" width="26" height="211.9" fill="#a07338" rx="2"/>
<text class="val" x="312.0" y="94.1" text-anchor="middle">1017</text>
<rect x="329.0" y="93.8" width="26" height="216.2" fill="#7a4862" rx="2"/>
<text class="val" x="342.0" y="89.8" text-anchor="middle">1038</text>
<text class="scen" x="297.0" y="328.0" text-anchor="middle">extension_jpg</text>
<rect x="397.0" y="245.4" width="26" height="64.6" fill="#0f5f36" rx="2"/>
<text class="val" x="410.0" y="241.4" text-anchor="middle">310</text>
<rect x="427.0" y="151.5" width="26" height="158.5" fill="#4f6a82" rx="2"/>
<text class="val" x="440.0" y="147.5" text-anchor="middle">761</text>
<rect x="457.0" y="97.5" width="26" height="212.5" fill="#a07338" rx="2"/>
<text class="val" x="470.0" y="93.5" text-anchor="middle">1020</text>
<rect x="487.0" y="95.0" width="26" height="215.0" fill="#7a4862" rx="2"/>
<text class="val" x="500.0" y="91.0" text-anchor="middle">1032</text>
<text class="scen" x="455.0" y="328.0" text-anchor="middle">extension_multi</text>
<rect x="555.0" y="244.6" width="26" height="65.4" fill="#0f5f36" rx="2"/>
<text class="val" x="568.0" y="240.6" text-anchor="middle">314</text>
<rect x="585.0" y="199.4" width="26" height="110.6" fill="#4f6a82" rx="2"/>
<text class="val" x="598.0" y="195.4" text-anchor="middle">531</text>
<rect x="615.0" y="159.4" width="26" height="150.6" fill="#a07338" rx="2"/>
<text class="val" x="628.0" y="155.4" text-anchor="middle">723</text>
<rect x="645.0" y="135.4" width="26" height="174.6" fill="#7a4862" rx="2"/>
<text class="val" x="658.0" y="131.4" text-anchor="middle">838</text>
<text class="scen" x="613.0" y="328.0" text-anchor="middle">name_glob</text>
<rect x="713.0" y="248.1" width="26" height="61.9" fill="#0f5f36" rx="2"/>
<text class="val" x="726.0" y="244.1" text-anchor="middle">297</text>
<rect x="743.0" y="198.8" width="26" height="111.2" fill="#4f6a82" rx="2"/>
<text class="val" x="756.0" y="194.8" text-anchor="middle">534</text>
<rect x="773.0" y="87.3" width="26" height="222.7" fill="#a07338" rx="2"/>
<text class="val" x="786.0" y="83.3" text-anchor="middle">1069</text>
<rect x="803.0" y="91.2" width="26" height="218.8" fill="#7a4862" rx="2"/>
<text class="val" x="816.0" y="87.2" text-anchor="middle">1050</text>
<text class="scen" x="771.0" y="328.0" text-anchor="middle">count_only</text>
<rect x="620" y="50" width="12" height="12" fill="#0f5f36" rx="2"/>
<text class="leg" x="636" y="60">pfind</text>
<rect x="678" y="50" width="12" height="12" fill="#4f6a82" rx="2"/>
<text class="leg" x="694" y="60">bfs</text>
<rect x="736" y="50" width="12" height="12" fill="#a07338" rx="2"/>
<text class="leg" x="752" y="60">fd</text>
<rect x="794" y="50" width="12" height="12" fill="#7a4862" rx="2"/>
<text class="leg" x="810" y="60">rg</text>
</svg>